name pl05_filtered_grf.mot
datacolumns 37
datarows 6
range 0.508000 0.510500
endheader
time	1_ground_force_vx	1_ground_force_vy	1_ground_force_vz	1_ground_force_px	1_ground_force_py	1_ground_force_pz	1_ground_torque_x	1_ground_torque_y	1_ground_torque_z	2_ground_force_vx	2_ground_force_vy	2_ground_force_vz	2_ground_force_px	2_ground_force_py	2_ground_force_pz	2_ground_torque_x	2_ground_torque_y	2_ground_torque_z	3_ground_force_vx	3_ground_force_vy	3_ground_force_vz	3_ground_force_px	3_ground_force_py	3_ground_force_pz	3_ground_torque_x	3_ground_torque_y	3_ground_torque_z	4_ground_force_vx	4_ground_force_vy	4_ground_force_vz	4_ground_force_px	4_ground_force_py	4_ground_force_pz	4_ground_torque_x	4_ground_torque_y	4_ground_torque_z
            0.508000	           -0.000000	            0.000000	            0.000000	            0.142679	            0.000000	            0.180650	            0.000000	            0.000000	           -0.000000	            0.000000	            0.000000	            0.000000	           -0.199375	            0.000000	            0.211348	            0.000000	           -0.000000	            0.000000	           -3.571361	           90.857014	          -59.427636	            0.412615	            1.263125	            1.877033	            0.131982	           -3.357680	            2.196187	            1.270540	           37.462493	          -29.349071	           -0.353510	            1.256087	            1.903100	            0.673969	            5.664944	            3.983355
            0.508500	           -0.000000	            0.000000	            0.000000	            0.142679	            0.000000	            0.180650	            0.000000	            0.000000	           -0.000000	            0.000000	            0.000000	            0.000000	           -0.199375	            0.000000	            0.211348	            0.000000	           -0.000000	            0.000000	           -3.089136	           87.240728	          -57.132128	            0.412609	            1.263124	            1.876982	            0.113915	           -3.217101	            2.106812	            0.830198	           35.183421	          -27.700336	           -0.353511	            1.256087	            1.903064	            0.642143	            5.333576	            3.762062
            0.509000	           -0.000000	            0.000000	            0.000000	            0.142679	            0.000000	            0.180650	            0.000000	            0.000000	           -0.000000	            0.000000	            0.000000	            0.000000	           -0.199375	            0.000000	            0.211348	            0.000000	           -0.000000	            0.000000	           -2.623871	           83.676462	          -54.858700	            0.412603	            1.263123	            1.876930	            0.096536	           -3.078589	            2.018338	            0.411140	           32.971829	          -26.092810	           -0.353512	            1.256088	            1.903027	            0.611082	            5.010842	            3.547363
            0.509500	           -0.000000	            0.000000	            0.000000	            0.142679	            0.000000	            0.180650	            0.000000	            0.000000	           -0.000000	            0.000000	            0.000000	            0.000000	           -0.199375	            0.000000	            0.211348	            0.000000	           -0.000000	            0.000000	           -2.175913	           80.166431	          -52.609594	            0.412596	            1.263122	            1.876878	            0.079859	           -2.942222	            1.930847	            0.013447	           30.828365	          -24.527771	           -0.353512	            1.256088	            1.902991	            0.580795	            4.696929	            3.339289
            0.510000	           -0.000000	            0.000000	            0.000000	            0.142679	            0.000000	            0.180650	            0.000000	            0.000000	           -0.000000	            0.000000	            0.000000	            0.000000	           -0.199375	            0.000000	            0.211348	            0.000000	           -0.000000	            0.000000	           -1.745570	           76.712803	          -50.387016	            0.412590	            1.263122	            1.876826	            0.063897	           -2.808078	            1.844421	           -0.362849	           28.753574	          -23.006397	           -0.353513	            1.256088	            1.902955	            0.551293	            4.392010	            3.137865
            0.510500	           -0.000000	            0.000000	            0.000000	            0.142679	            0.000000	            0.180650	            0.000000	            0.000000	           -0.000000	            0.000000	            0.000000	            0.000000	           -0.199375	            0.000000	            0.211348	            0.000000	           -0.000000	            0.000000	           -1.332376	           73.317932	          -48.192779	            0.412584	            1.263119	            1.876772	            0.813876	           -9.032866	           -7.932658	           -0.717377	           26.748115	          -21.529506	           -0.353515	            1.256088	            1.902919	            0.522533	            4.096207	            2.943156
